<svg width="207" height="71" viewBox="0 0 207 71" fill="none" xmlns="http://www.w3.org/2000/svg">
<path d="M1 18C1 8.61116 8.61116 1 18 1H189C198.389 1 206 8.61116 206 18V53C206 62.3888 198.389 70 189 70H18C8.61116 70 1 62.3888 1 53V18Z" fill="#292F36"/>
<path d="M155.469 37.2154L178.04 37.1851L170.387 46.122C169.822 46.7814 169.823 47.8489 170.39 48.5068C170.956 49.1646 171.873 49.1633 172.438 48.504L182.559 36.6849C183.124 36.0256 183.123 34.9576 182.556 34.3002L172.403 22.5083C172.12 22.1794 171.749 22.015 171.378 22.0155C171.008 22.016 170.637 22.1814 170.355 22.511C169.79 23.1704 169.792 24.2384 170.358 24.8958L178.035 33.8121L155.464 33.8424C154.665 33.8434 154.017 34.5994 154.018 35.5308C154.019 36.4622 154.669 37.2164 155.469 37.2154Z" fill="#CDA274"/>
<path d="M1 18C1 8.61116 8.61116 1 18 1H189C198.389 1 206 8.61116 206 18V53C206 62.3888 198.389 70 189 70H18C8.61116 70 1 62.3888 1 53V18Z" stroke="#292F36" stroke-width="2"/>
</svg>
