<svg width="177" height="40" viewBox="0 0 177 40" fill="none" xmlns="http://www.w3.org/2000/svg">
<path d="M44.88 29V28.6L45.68 28.28C46.2133 28.0933 46.56 27.84 46.72 27.52C46.9067 27.2 47 26.7733 47 26.24V5.36C47 4.8267 46.92 4.4 46.76 4.08C46.6 3.76 46.24 3.5067 45.68 3.32L44.88 3V2.6H55.16V3L54.36 3.32C53.8267 3.5067 53.4667 3.76 53.28 4.08C53.12 4.4 53.04 4.8267 53.04 5.36V26.24C53.04 26.7733 53.12 27.2 53.28 27.52C53.4667 27.8133 53.8267 28.0667 54.36 28.28L55.16 28.6V29H44.88ZM56.8313 29V28.6L57.3913 28.44C58.3246 28.1733 58.7913 27.52 58.7913 26.48V13.96C58.7913 13.3733 58.6979 12.9467 58.5113 12.68C58.3246 12.3867 57.9646 12.1867 57.4313 12.08L56.8313 11.92V11.52L63.6713 9.2L64.0713 9.6L64.3913 12C65.3246 11.1733 66.3779 10.4933 67.5513 9.96C68.7246 9.4267 69.8846 9.16 71.0313 9.16C72.7913 9.16 74.1379 9.64 75.0713 10.6C76.0313 11.56 76.5113 13.0267 76.5113 15V26.52C76.5113 27.56 77.0179 28.2133 78.0313 28.48L78.3913 28.6V29H68.9513V28.6L69.4713 28.44C70.4046 28.1467 70.8713 27.4933 70.8713 26.48V13.72C70.8713 12.0133 70.0179 11.16 68.3113 11.16C67.1379 11.16 65.8579 11.7467 64.4713 12.92V26.52C64.4713 27.56 64.9379 28.2133 65.8713 28.48L66.2313 28.6V29H56.8313ZM87.3609 29.6C85.6543 29.6 84.3209 29.1733 83.3609 28.32C82.4276 27.4667 81.9609 26.1067 81.9609 24.24V10.56H79.2009V10.16L80.1609 10C80.9876 9.8133 81.6943 9.5467 82.2809 9.2C82.8943 8.8533 83.4943 8.3867 84.0809 7.8L87.3609 4.16H87.7609L87.6409 9.76H92.1209V10.56H87.6009V24.96C87.6009 25.8933 87.8009 26.6 88.2009 27.08C88.6276 27.56 89.1609 27.8 89.8009 27.8C90.3609 27.8 90.8543 27.6667 91.2809 27.4C91.7076 27.1067 92.1343 26.72 92.5609 26.24L92.9609 26.64C92.4276 27.5467 91.6943 28.2667 90.7609 28.8C89.8276 29.3333 88.6943 29.6 87.3609 29.6ZM104.137 9.16C105.87 9.16 107.35 9.52 108.577 10.24C109.804 10.9333 110.737 11.8933 111.377 13.12C112.044 14.32 112.377 15.6933 112.377 17.24C112.377 17.5333 112.364 17.84 112.337 18.16C112.31 18.4533 112.257 18.72 112.177 18.96H100.257C100.284 21.84 100.79 23.92 101.777 25.2C102.79 26.4533 104.284 27.08 106.257 27.08C107.59 27.08 108.67 26.8667 109.497 26.44C110.324 26.0133 111.097 25.3867 111.817 24.56L112.217 24.92C111.39 26.3867 110.284 27.5333 108.897 28.36C107.537 29.1867 105.897 29.6 103.977 29.6C102.084 29.6 100.404 29.2 98.9369 28.4C97.4702 27.5733 96.3235 26.4 95.4969 24.88C94.6702 23.36 94.2569 21.5467 94.2569 19.44C94.2569 17.2533 94.7369 15.4 95.6969 13.88C96.6569 12.3333 97.8835 11.16 99.3769 10.36C100.897 9.56 102.484 9.16 104.137 9.16ZM104.017 9.96C103.244 9.96 102.577 10.2 102.017 10.68C101.484 11.1333 101.057 11.96 100.737 13.16C100.444 14.3333 100.284 16 100.257 18.16H107.097C107.364 15.2533 107.257 13.16 106.777 11.88C106.297 10.6 105.377 9.96 104.017 9.96ZM114.37 29V28.6L114.97 28.44C115.504 28.28 115.864 28.04 116.05 27.72C116.264 27.4 116.37 26.9867 116.37 26.48V13.96C116.37 13.3733 116.264 12.9467 116.05 12.68C115.864 12.3867 115.504 12.1867 114.97 12.08L114.37 11.92V11.52L121.25 9.2L121.65 9.6L122.01 13.04V13.36C122.384 12.6133 122.864 11.9333 123.45 11.32C124.064 10.68 124.73 10.16 125.45 9.76C126.197 9.36 126.93 9.16 127.65 9.16C128.664 9.16 129.437 9.44 129.97 10C130.504 10.56 130.77 11.2667 130.77 12.12C130.77 13.0267 130.504 13.7333 129.97 14.24C129.464 14.72 128.85 14.96 128.13 14.96C127.01 14.96 126.024 14.4 125.17 13.28L125.09 13.2C124.824 12.8267 124.517 12.6267 124.17 12.6C123.824 12.5467 123.504 12.7067 123.21 13.08C122.944 13.32 122.717 13.6133 122.53 13.96C122.37 14.28 122.21 14.6533 122.05 15.08V26.24C122.05 27.3067 122.517 27.9733 123.45 28.24L124.73 28.6V29H114.37ZM132.027 29V28.6L132.587 28.44C133.52 28.1733 133.987 27.52 133.987 26.48V13.96C133.987 13.3733 133.893 12.9467 133.707 12.68C133.52 12.3867 133.16 12.1867 132.627 12.08L132.027 11.92V11.52L138.867 9.2L139.267 9.6L139.587 12C140.52 11.1733 141.573 10.4933 142.747 9.96C143.92 9.4267 145.08 9.16 146.227 9.16C147.987 9.16 149.333 9.64 150.267 10.6C151.227 11.56 151.707 13.0267 151.707 15V26.52C151.707 27.56 152.213 28.2133 153.227 28.48L153.587 28.6V29H144.147V28.6L144.667 28.44C145.6 28.1467 146.067 27.4933 146.067 26.48V13.72C146.067 12.0133 145.213 11.16 143.507 11.16C142.333 11.16 141.053 11.7467 139.667 12.92V26.52C139.667 27.56 140.133 28.2133 141.067 28.48L141.427 28.6V29H132.027ZM165.272 29.6C163.245 29.6 161.485 29.1867 159.992 28.36C158.498 27.5067 157.338 26.3067 156.512 24.76C155.712 23.2133 155.312 21.4 155.312 19.32C155.312 17.24 155.738 15.44 156.592 13.92C157.472 12.4 158.658 11.2267 160.152 10.4C161.672 9.5733 163.378 9.16 165.272 9.16C167.165 9.16 168.858 9.5733 170.352 10.4C171.845 11.2 173.018 12.36 173.872 13.88C174.752 15.4 175.192 17.2133 175.192 19.32C175.192 21.4267 174.778 23.2533 173.952 24.8C173.152 26.32 172.005 27.5067 170.512 28.36C169.045 29.1867 167.298 29.6 165.272 29.6ZM165.272 28.8C166.205 28.8 166.952 28.5333 167.512 28C168.072 27.4667 168.472 26.52 168.712 25.16C168.978 23.8 169.112 21.88 169.112 19.4C169.112 16.8933 168.978 14.96 168.712 13.6C168.472 12.24 168.072 11.2933 167.512 10.76C166.952 10.2267 166.205 9.96 165.272 9.96C164.338 9.96 163.578 10.2267 162.992 10.76C162.432 11.2933 162.018 12.24 161.752 13.6C161.512 14.96 161.392 16.8933 161.392 19.4C161.392 21.88 161.512 23.8 161.752 25.16C162.018 26.52 162.432 27.4667 162.992 28C163.578 28.5333 164.338 28.8 165.272 28.8Z" fill="#292F36"/>
<path d="M0 32.0003H13.4588V22.499C13.4588 20.4853 15.0898 18.8543 17.1035 18.8543C19.1172 18.8543 20.7482 20.4853 20.7482 22.499V32.0003H33.9975V-2C15.2211 -2 0 13.2211 0 32.0003Z" fill="#CDA274"/>
</svg>
